<svg width="38" height="38" viewBox="0 0 38 38" fill="none" xmlns="http://www.w3.org/2000/svg">
<path d="M29.6875 12.667V15.992C28.9908 15.897 28.1992 15.8495 27.3125 15.8337V12.667C27.3125 7.67949 25.9033 4.35449 19 4.35449C12.0967 4.35449 10.6875 7.67949 10.6875 12.667V15.8337C9.80083 15.8495 9.00917 15.897 8.3125 15.992V12.667C8.3125 8.07533 9.42083 1.97949 19 1.97949C28.5792 1.97949 29.6875 8.07533 29.6875 12.667Z" fill="url(#paint0_linear_85_828)"/>
<path d="M29.6878 15.9913C28.9912 15.8963 28.1995 15.8488 27.3128 15.833H10.6878C9.80116 15.8488 9.00949 15.8963 8.31283 15.9913C4.27533 16.4822 3.16699 18.4613 3.16699 23.7497V26.9163C3.16699 33.2497 4.75033 34.833 11.0837 34.833H26.917C33.2503 34.833 34.8337 33.2497 34.8337 26.9163V23.7497C34.8337 18.4613 33.7253 16.4822 29.6878 15.9913ZM13.7912 26.4572C13.4903 26.7422 13.0787 26.9163 12.667 26.9163C12.4612 26.9163 12.2553 26.8688 12.0653 26.7897C11.8595 26.7105 11.7012 26.5997 11.5428 26.4572C11.2578 26.1563 11.0837 25.7447 11.0837 25.333C11.0837 25.1272 11.1312 24.9213 11.2103 24.7313C11.2895 24.5413 11.4003 24.3672 11.5428 24.2088C11.7012 24.0663 11.8595 23.9555 12.0653 23.8763C12.6512 23.623 13.3478 23.7655 13.7912 24.2088C13.9337 24.3672 14.0445 24.5413 14.1237 24.7313C14.2028 24.9213 14.2503 25.1272 14.2503 25.333C14.2503 25.7447 14.0762 26.1563 13.7912 26.4572ZM20.457 25.9347C20.3778 26.1247 20.267 26.2988 20.1245 26.4572C19.8237 26.7422 19.412 26.9163 19.0003 26.9163C18.5728 26.9163 18.177 26.7422 17.8762 26.4572C17.7337 26.2988 17.6228 26.1247 17.5437 25.9347C17.4645 25.7447 17.417 25.5388 17.417 25.333C17.417 24.9055 17.5912 24.5097 17.8762 24.2088C18.462 23.623 19.5228 23.623 20.1245 24.2088C20.4095 24.5097 20.5837 24.9055 20.5837 25.333C20.5837 25.5388 20.5362 25.7447 20.457 25.9347ZM26.4578 26.4572C26.157 26.7422 25.7453 26.9163 25.3337 26.9163C24.922 26.9163 24.5103 26.7422 24.2095 26.4572C23.9245 26.1563 23.7503 25.7605 23.7503 25.333C23.7503 24.9055 23.9245 24.5097 24.2095 24.2088C24.8112 23.623 25.872 23.623 26.4578 24.2088C26.5212 24.288 26.5845 24.3672 26.6478 24.4622C26.7112 24.5413 26.7587 24.6363 26.7903 24.7313C26.8378 24.8263 26.8695 24.9213 26.8853 25.0163C26.9012 25.1272 26.917 25.238 26.917 25.333C26.917 25.7447 26.7428 26.1563 26.4578 26.4572Z" fill="url(#paint1_linear_85_828)"/>
<defs>
<linearGradient id="paint0_linear_85_828" x1="19" y1="1.97949" x2="19" y2="20.1275" gradientUnits="userSpaceOnUse">
<stop stop-color="#8078FF"/>
<stop offset="1" stop-color="#3D35BE"/>
</linearGradient>
<linearGradient id="paint1_linear_85_828" x1="19.0003" y1="15.833" x2="19.0003" y2="40.4405" gradientUnits="userSpaceOnUse">
<stop stop-color="#8078FF"/>
<stop offset="1" stop-color="#3D35BE"/>
</linearGradient>
</defs>
</svg>
